<?xml version="1.0" encoding="UTF-8" standalone="no"?>
<svg
   xmlns:dc="http://purl.org/dc/elements/1.1/"
   xmlns:cc="http://creativecommons.org/ns#"
   xmlns:rdf="http://www.w3.org/1999/02/22-rdf-syntax-ns#"
   xmlns:svg="http://www.w3.org/2000/svg"
   xmlns="http://www.w3.org/2000/svg"
   xmlns:sodipodi="http://sodipodi.sourceforge.net/DTD/sodipodi-0.dtd"
   xmlns:inkscape="http://www.inkscape.org/namespaces/inkscape"
   class="icon__logo"
   version="1.1"
   id="svg46"
   sodipodi:docname="Alfresco_logo.svg"
   inkscape:version="0.92.5 (2060ec1f9f, 2020-04-08)"
   width="71.340134"
   height="19.382128">
  <metadata
     id="metadata52">
    <rdf:RDF>
      <cc:Work
         rdf:about="">
        <dc:format>image/svg+xml</dc:format>
        <dc:type
           rdf:resource="http://purl.org/dc/dcmitype/StillImage" />
        <dc:title></dc:title>
      </cc:Work>
    </rdf:RDF>
  </metadata>
  <defs
     id="defs50" />
  <sodipodi:namedview
     pagecolor="#ffffff"
     bordercolor="#666666"
     borderopacity="1"
     objecttolerance="10"
     gridtolerance="10"
     guidetolerance="10"
     inkscape:pageopacity="0"
     inkscape:pageshadow="2"
     inkscape:window-width="3440"
     inkscape:window-height="1361"
     id="namedview48"
     showgrid="false"
     inkscape:zoom="3.1737804"
     inkscape:cx="164.2519"
     inkscape:cy="6.9146551"
     inkscape:window-x="1911"
     inkscape:window-y="-9"
     inkscape:window-maximized="1"
     inkscape:current-layer="svg46"
     fit-margin-top="0"
     fit-margin-left="0"
     fit-margin-right="0"
     fit-margin-bottom="0" />
  <path
     style="fill:#303030;fill-opacity:1;stroke-width:0.12748757"
     d="m 20.619204,15.686709 h 1.157587 l 1.363352,-3.552824 h 5.153048 l 1.379416,3.552824 h 1.157332 L 26.39044,4.2582125 H 25.18479 L 20.61895,15.686709 Z"
     id="path4678"
     inkscape:connector-curvature="0" />
  <path
     style="fill:#ffffff;fill-opacity:1;stroke-width:0.12748757"
     d="m 25.739998,5.3472113 2.188324,5.8580537 h -4.455436 z"
     id="path4676"
     inkscape:connector-curvature="0" />
  <path
     style="fill:#303030;fill-opacity:1;stroke-width:0.12748757"
     d="m 31.218649,15.686709 h 0.998737 V 4.2582125 h -0.99861 z"
     id="path4674"
     inkscape:connector-curvature="0" />
  <path
     style="fill:#303030;fill-opacity:1;stroke-width:0.12748757"
     d="M 36.494722,7.4279361 H 34.87818 V 6.7076312 c 0,-0.2241231 0.0047,-0.4321828 0.01555,-0.6239242 0.01046,-0.1927611 0.04998,-0.3604073 0.118564,-0.5048508 0.06884,-0.1436785 0.177208,-0.2584172 0.324838,-0.3442164 0.147885,-0.085034 0.359514,-0.1278701 0.634887,-0.1278701 0.116015,0 0.232411,0.00816 0.348807,0.02384 0.115631,0.016063 0.242609,0.034677 0.379913,0.056095 V 4.3227212 c -0.142057,-0.019887 -0.284644,-0.035786 -0.427593,-0.04768 -0.127487,-0.010709 -0.264537,-0.016828 -0.412423,-0.016828 -0.401967,0 -0.732289,0.059154 -0.991471,0.1759329 -0.258799,0.1172886 -0.46278,0.2830224 -0.610411,0.4959266 -0.147884,0.2141792 -0.247708,0.4704291 -0.30138,0.7683676 -0.05227,0.2992134 -0.07904,0.6246891 -0.07904,0.9765549 v 0.7528141 h -1.395224 v 0.8477923 h 1.395096 V 15.68671 h 0.99963 V 8.275856 h 1.616542 V 7.4280636 h 2.57e-4 z"
     id="path4672"
     inkscape:connector-curvature="0" />
  <path
     style="fill:#303030;fill-opacity:1;stroke-width:0.12748757"
     d="m 36.806811,15.686709 h 0.998866 v -4.334323 c 0,-0.419816 0.07369,-0.814646 0.22221,-1.182192 0.147631,-0.3678017 0.356583,-0.6826962 0.62571,-0.945958 0.270274,-0.2626244 0.590012,-0.4650747 0.95947,-0.6070958 0.369715,-0.1424037 0.782264,-0.2019403 1.236376,-0.1815424 V 7.4280636 c -0.739428,-0.032127 -1.376483,0.1141013 -1.910401,0.439832 -0.533409,0.3263683 -0.926835,0.8243347 -1.181046,1.4969591 h -0.03123 V 7.4278086 h -0.920078 v 8.2586454 z"
     id="path4670"
     inkscape:connector-curvature="0" />
  <path
     style="fill:#303030;fill-opacity:1;stroke-width:0.12748757"
     d="m 47.621965,11.829572 c 0.02169,-0.543498 -0.03172,-1.08739 -0.158722,-1.616287 -0.125958,-0.5316236 -0.33491,-1.0020528 -0.625964,-1.4123078 -0.290672,-0.4092351 -0.668035,-0.7409577 -1.133747,-0.994148 -0.464819,-0.2529354 -1.025,-0.3791481 -1.680541,-0.3791481 -0.655541,0 -1.215721,0.1185634 -1.680796,0.3553078 -0.46533,0.2368719 -0.846136,0.5494715 -1.141906,0.9383086 -0.295134,0.3875622 -0.51505,0.8289242 -0.658092,1.3230665 -0.14196,0.491796 -0.21389,1.001147 -0.213669,1.513022 0,0.554571 0.07139,1.081095 0.213798,1.580336 0.143167,0.498987 0.363084,0.937927 0.658217,1.316437 0.295771,0.378255 0.676577,0.677597 1.141779,0.899681 0.464819,0.222593 1.025255,0.332742 1.680669,0.332742 1.035709,0 1.836204,-0.2588 2.401866,-0.7764 0.566045,-0.517344 0.954244,-1.245808 1.165746,-2.185137 h -0.998992 c -0.15834,0.630172 -0.443658,1.139485 -0.855952,1.529087 -0.412422,0.389091 -0.983184,0.584275 -1.712541,0.584275 -0.475529,0 -0.884764,-0.09357 -1.22898,-0.280855 -0.343324,-0.187917 -0.621119,-0.425554 -0.832493,-0.712019 -0.210992,-0.286336 -0.369714,-0.60837 -0.474765,-0.96406 -0.106707,-0.355691 -0.159359,-0.706282 -0.159359,-1.052156 h 6.294444 v 3.85e-4 z"
     id="path4668"
     inkscape:connector-curvature="0" />
  <path
     style="fill:#ffffff;fill-opacity:1;stroke-width:0.12748757"
     d="m 41.327265,10.980505 c 0.0426,-0.34535 0.130602,-0.683564 0.261733,-1.0058777 0.132587,-0.3291723 0.308775,-0.6186966 0.530858,-0.8681898 0.222211,-0.2494932 0.491593,-0.4509236 0.809546,-0.6017414 0.316425,-0.1523476 0.680784,-0.2290952 1.093334,-0.2290952 0.401585,0 0.760845,0.076875 1.078289,0.2289678 0.317445,0.1512002 0.586826,0.352503 0.808655,0.6019963 0.221828,0.2493657 0.393426,0.5372327 0.51505,0.8592663 0.121797,0.3248877 0.188915,0.6677137 0.198625,1.0145457 l -5.295834,2.57e-4 z"
     id="path4666"
     inkscape:connector-curvature="0" />
  <path
     style="fill:#303030;fill-opacity:1;stroke-width:0.12748757"
     d="M 54.244052,9.8447183 C 54.222889,9.3968542 54.132883,9.0071246 53.97467,8.6762944 53.815949,8.3457191 53.602025,8.0681787 53.333153,7.8440555 53.063135,7.6196774 52.751172,7.454326 52.39714,7.3478738 52.042724,7.2407843 51.659242,7.1872395 51.247457,7.1872395 c -0.359133,0 -0.721071,0.042963 -1.086195,0.1279976 -0.364614,0.085799 -0.694806,0.2195336 -0.990323,0.4009484 -0.297047,0.1807774 -0.537615,0.4214739 -0.72209,0.7192848 -0.184856,0.2993409 -0.277922,0.6574535 -0.277922,1.0731905 0,0.3523755 0.05788,0.6482742 0.174402,0.8885882 0.113642,0.236306 0.278841,0.444112 0.483433,0.608116 0.206148,0.165734 0.446972,0.304185 0.72209,0.416502 0.274609,0.111679 0.575734,0.210354 0.903505,0.295771 l 1.284564,0.288122 c 0.221573,0.0538 0.441108,0.116779 0.657836,0.191996 0.216985,0.07471 0.409745,0.167774 0.579176,0.280218 0.165574,0.108381 0.303878,0.253536 0.404135,0.424151 0.100334,0.170452 0.150819,0.373285 0.150819,0.608626 0,0.28774 -0.0719,0.530985 -0.213925,0.72821 -0.143424,0.19786 -0.325985,0.360024 -0.546922,0.488532 -0.227096,0.129247 -0.473682,0.220742 -0.730121,0.270911 -0.263899,0.05418 -0.5125,0.08057 -0.74542,0.08057 -0.665995,0 -1.222987,-0.173383 -1.672636,-0.520149 -0.449139,-0.34702 -0.695063,-0.861814 -0.738153,-1.54451 h -0.998865 c 0.08503,1.014163 0.426318,1.752954 1.023215,2.217009 0.597917,0.464055 1.377375,0.695699 2.339142,0.695699 0.380805,0 0.7662,-0.045 1.157587,-0.135392 0.390749,-0.09115 0.742615,-0.234577 1.054322,-0.43282 0.310289,-0.195992 0.573063,-0.458591 0.76926,-0.76875 0.200156,-0.314639 0.300871,-0.695572 0.300871,-1.143818 0,-0.363723 -0.06846,-0.67798 -0.205893,-0.945321 -0.137303,-0.265939 -0.314384,-0.489935 -0.531368,-0.671477 -0.216729,-0.181288 -0.464947,-0.328408 -0.745419,-0.44047 -0.272719,-0.109995 -0.557317,-0.187862 -0.848048,-0.232027 l -1.33199,-0.304441 C 50.679193,10.804707 50.494033,10.748773 50.31157,10.684861 50.116773,10.618891 49.930488,10.530046 49.756616,10.420197 49.591907,10.318709 49.44885,10.185704 49.335652,10.02881 49.224738,9.8742953 49.170557,9.6845936 49.170557,9.4604704 c 0,-0.265939 0.05699,-0.4913371 0.173383,-0.6721144 0.115504,-0.1817973 0.269763,-0.328408 0.460484,-0.4404696 0.18932,-0.1116791 0.398399,-0.1912313 0.625582,-0.2399316 0.227311,-0.048445 0.451943,-0.071393 0.673772,-0.071393 0.28519,0 0.554571,0.033529 0.809036,0.1037749 0.252681,0.068843 0.478334,0.1779726 0.67339,0.3280254 0.195438,0.1485231 0.351866,0.3382245 0.467879,0.5682122 0.116651,0.2289677 0.179121,0.4984764 0.190339,0.808271 h 0.999502 v -3.85e-4 z"
     id="path4664"
     inkscape:connector-curvature="0" />
  <path
     style="fill:#303030;fill-opacity:1;stroke-width:0.12748757"
     d="M 61.782265,10.260583 C 61.665997,9.3108001 61.303804,8.6010767 60.696071,8.13205 60.087318,7.6623857 59.345086,7.4276811 58.468099,7.4276811 c -0.624435,0 -1.176329,0.1104042 -1.65734,0.3324876 -0.48101,0.2218284 -0.886039,0.5196394 -1.213681,0.892413 -0.327261,0.3735386 -0.575225,0.8120959 -0.744528,1.3163096 -0.169176,0.5042127 -0.253955,1.0335417 -0.253955,1.5882397 0,0.56477 0.08478,1.096394 0.2537,1.595762 0.169558,0.499243 0.417395,0.935249 0.744911,1.308788 0.327514,0.373539 0.732288,0.669947 1.213681,0.892031 0.481011,0.222594 1.033032,0.332742 1.657339,0.332742 0.919185,0 1.677226,-0.283022 2.274633,-0.848303 0.597661,-0.565406 0.96508,-1.349454 1.102257,-2.352655 h -0.998993 c -0.03123,0.341667 -0.116651,0.656052 -0.2537,0.94379 -0.137686,0.288378 -0.31209,0.536213 -0.522698,0.744783 -0.210367,0.207269 -0.458056,0.372857 -0.729994,0.488023 -0.274099,0.11767 -0.56579,0.175932 -0.872016,0.175932 -0.476038,0 -0.893687,-0.09434 -1.253203,-0.282512 -0.359769,-0.188682 -0.65758,-0.437792 -0.895472,-0.746185 -0.237509,-0.308137 -0.417267,-0.659111 -0.539273,-1.051135 -0.120924,-0.389026 -0.182514,-0.794057 -0.182689,-1.201443 0,-0.407961 0.06119,-0.807634 0.182689,-1.200933 0.122134,-0.3917697 0.301636,-0.7428704 0.539273,-1.0508803 0.237765,-0.30852 0.535448,-0.5571207 0.895217,-0.7460573 0.359516,-0.1891916 0.777293,-0.2835325 1.253458,-0.2835325 0.654903,0 1.170592,0.1761879 1.545405,0.5280536 0.376088,0.3528856 0.631573,0.8383583 0.76926,1.4571835 h 0.999503 v -2.57e-4 z"
     id="path4662"
     inkscape:connector-curvature="0" />
  <path
     style="fill:#303030;fill-opacity:1;stroke-width:0.12748757"
     d="m 66.072604,7.4279361 c -0.623415,0 -1.17569,0.1104041 -1.656956,0.3327425 -0.480628,0.2218284 -0.885274,0.5195119 -1.212152,0.8921581 -0.328535,0.3735386 -0.576243,0.8120959 -0.745802,1.3164366 -0.168793,0.5040857 -0.2537,1.0336697 -0.2537,1.5881127 0,0.56477 0.08491,1.096394 0.2537,1.596145 0.169559,0.499114 0.417394,0.934994 0.745802,1.308405 0.326751,0.373539 0.731524,0.67033 1.212408,0.892413 0.481137,0.222593 1.033414,0.332742 1.656828,0.332742 0.624178,0 1.17671,-0.110403 1.657338,-0.332742 0.481011,-0.222083 0.885275,-0.518874 1.2133,-0.892413 0.327132,-0.373538 0.575989,-0.809291 0.744909,-1.308532 0.168921,-0.499752 0.253701,-1.03112 0.253701,-1.596145 0,-0.554571 -0.08478,-1.0839 -0.253701,-1.5878587 C 69.519359,9.4651875 69.27063,9.0267577 68.94337,8.6530916 68.615345,8.2804455 68.211208,7.982507 67.729943,7.7606786 67.249314,7.5383402 66.69691,7.428191 66.072604,7.428191 Z"
     id="path4660"
     inkscape:connector-curvature="0" />
  <path
     style="fill:#ffffff;fill-opacity:1;stroke-width:0.12748757"
     d="m 66.072604,8.2757285 c 0.475529,0 0.893688,0.094341 1.252693,0.2835323 0.359516,0.1891916 0.657836,0.4377924 0.896238,0.7461848 0.237509,0.3081374 0.417649,0.6591107 0.539272,1.0510074 0.12079,0.388882 0.182375,0.793725 0.18269,1.200933 -3.85e-4,0.407298 -0.062,0.812223 -0.182817,1.201188 -0.121623,0.39177 -0.301509,0.74287 -0.539272,1.051009 -0.238148,0.308519 -0.536724,0.55712 -0.896238,0.746184 -0.358495,0.188045 -0.77691,0.28264 -1.252566,0.28264 -0.475529,0 -0.893305,-0.09434 -1.251927,-0.28264 -0.359771,-0.188681 -0.658219,-0.437792 -0.897131,-0.746184 -0.23649,-0.308139 -0.416884,-0.659112 -0.537997,-1.051136 -0.120787,-0.389041 -0.182162,-0.794084 -0.182053,-1.201443 0,-0.407961 0.06043,-0.807634 0.181925,-1.200933 0.121114,-0.3917697 0.301508,-0.7428704 0.537998,-1.0508804 0.239039,-0.30852 0.537487,-0.5571207 0.897129,-0.7460573 0.358751,-0.1891916 0.7764,-0.2835324 1.251929,-0.2835324 z"
     id="path4658"
     inkscape:connector-curvature="0" />
  <path
     style="fill:#303030;fill-opacity:1;stroke-width:0.12748757"
     d="m 71.340136,7.9797023 c 0,0.4481188 -0.339754,0.7967974 -0.781244,0.7967974 -0.44149,0 -0.781499,-0.3486786 -0.781499,-0.7967974 0,-0.4469714 0.340009,-0.7967973 0.781499,-0.7967973 0.44149,0 0.781244,0.3498259 0.781244,0.7967973 z"
     id="path4656"
     inkscape:connector-curvature="0" />
  <path
     style="fill:#303030;fill-opacity:1;stroke-width:0.12748757"
     d="m 69.899527,7.9797023 c 0,0.3811879 0.280472,0.6837159 0.659365,0.6837159 0.378384,0 0.660131,-0.3021456 0.660131,-0.6837159 0,-0.3806779 -0.281747,-0.6828235 -0.660131,-0.6828235 -0.378638,0 -0.659365,0.3021456 -0.659365,0.682696 z"
     id="path4654"
     inkscape:connector-curvature="0" />
  <path
     style="fill:#ffffff;fill-opacity:1;stroke-width:0.12748757"
     d="M 70.387167,8.4405699 H 70.27536 V 7.5193447 h 0.346 c 0.203982,0 0.294752,0.089751 0.294752,0.2549751 0,0.163439 -0.105177,0.2358521 -0.226545,0.257015 l 0.268234,0.4092351 H 70.828146 L 70.57317,8.0313348 h -0.186131 v 0.4092351 z"
     id="path4652"
     inkscape:connector-curvature="0" />
  <path
     style="fill:#303030;fill-opacity:1;stroke-width:0.12748757"
     d="m 70.533522,7.9354641 c 0.137177,0 0.271294,-0.00446 0.271294,-0.1611443 0,-0.12838 -0.105433,-0.1585946 -0.21418,-0.1585946 h -0.203469 v 0.3197389 z"
     id="path4650"
     inkscape:connector-curvature="0" />
  <path
     style="fill:#ffffff;fill-opacity:1;stroke-width:0.12748757"
     d="M 9.5035614,9.6960673 C 9.5046074,8.4192438 6.8230076,6.9598017 6.8230076,6.9598017 L 6.7258621,6.8601064 C 5.1919464,5.2859306 2.6892228,5.2915531 1.1568224,6.8539871 c -1.53789025,1.5680309 -1.53715248,4.1050849 0,5.6757469 1.5331418,1.566563 4.0219139,1.566585 5.5616453,0 0,0 2.7840077,-1.509263 2.7850937,-2.8336667 z"
     id="path2"
     inkscape:connector-curvature="0" />
  <path
     d="m 9.5035614,9.6924983 v 3.8647857 l 0.0055,0.142021 c 0,2.215735 -1.7651929,4.022999 -3.9410233,4.022999 -2.1759579,0 -3.940641,-1.79579 -3.940641,-4.012035 0,-2.218284 1.7713123,-4.0181537 3.940641,-4.0181537 h 3.9355433 z"
     id="path4"
     inkscape:connector-curvature="0"
     style="fill:#ffffff;stroke-width:0.12748757" />
  <path
     d="m 9.5035614,9.6924983 v 3.8647857 l 0.0055,0.142021 c 0,2.215735 -1.7651929,4.022999 -3.9410233,4.022999 -2.1759579,0 -3.940641,-1.79579 -3.940641,-4.012035 0,-2.218284 1.7713123,-4.0181537 3.940641,-4.0181537 h 3.9355433 z"
     id="path6"
     inkscape:connector-curvature="0"
     style="fill:#ffffff;stroke-width:0.12748757" />
  <path
     d="m 9.5035614,9.6924983 v 3.8647857 l 0.0055,0.142021 c 0,2.215735 -1.7651929,4.022999 -3.9410233,4.022999 -2.1759579,0 -3.940641,-1.79579 -3.940641,-4.012035 0,-0.246943 0.026008,-0.486109 0.066294,-0.71648 1.5357154,1.090019 3.6594034,0.93576 5.0246679,-0.46329 L 9.5034544,9.6958123 v -0.0036 z"
     id="path8"
     inkscape:connector-curvature="0"
     style="fill:#ffffff;stroke-width:0.12748757" />
  <path
     d="m 5.5682749,10.198879 c -1.8957403,0 -3.437065,1.571921 -3.437065,3.511773 0,1.932457 1.5413247,3.500809 3.437065,3.500809 1.9021146,0 3.4379575,-1.568352 3.4379575,-3.500809 V 10.198879 H 5.5681473 Z"
     id="path10"
     inkscape:connector-curvature="0"
     style="fill:#8bc037;stroke-width:0.12748757" />
  <path
     d="m 9.5035614,9.6924983 2.6785136,2.7312937 0.11015,0.09944 c 1.530107,1.57001 1.537246,4.118487 0,5.683779 -1.541325,1.566823 -4.0316676,1.566823 -5.5737573,0 -1.5357152,-1.565292 -1.5357152,-4.110964 0,-5.680209 L 9.5036894,9.6924983 Z"
     id="path12"
     inkscape:connector-curvature="0"
     style="fill:#ffffff;stroke-width:0.12748757" />
  <path
     d="m 7.0779827,12.887337 c -1.3455038,1.368706 -1.3455038,3.592983 0,4.957737 1.3390021,1.369217 3.5167443,1.369217 4.8621213,0 1.339513,-1.36501 1.339513,-3.588775 0,-4.957737 L 11.82817,12.784582 9.5035614,10.411018 7.0779827,12.882748 Z"
     id="path14"
     inkscape:connector-curvature="0"
     style="fill:#8bc037;stroke-width:0.12748757" />
  <path
     d="m 9.5035614,9.6924983 h 3.7953066 l 0.138069,-0.007 c 2.176212,0 3.941278,1.7988497 3.941278,4.0176437 0,2.219558 -1.758818,4.011397 -3.934776,4.011397 -2.175832,0 -3.9396226,-1.795025 -3.9396226,-4.011525 V 9.6924983 Z"
     id="path16"
     inkscape:connector-curvature="0"
     style="fill:#ffffff;stroke-width:0.12748757" />
  <path
     d="m 10.005862,13.703257 c 0,1.936919 1.534951,3.505909 3.437577,3.505909 1.893955,0 3.429415,-1.56899 3.429415,-3.505909 0,-1.939596 -1.53546,-3.504378 -3.429415,-3.504378 h -3.437577 z"
     id="path18"
     inkscape:connector-curvature="0"
     style="fill:#8bc037;stroke-width:0.12748757" />
  <path
     d="M 9.5035614,9.6924983 12.18182,6.956997 12.285595,6.8539871 c 1.536481,-1.5658025 4.032051,-1.5723044 5.568148,-0.00714 1.536481,1.5698819 1.536481,4.1105819 0,5.6798259 a 3.8813592,3.8813592 0 0 1 -5.568148,0 z"
     id="path20"
     inkscape:connector-curvature="0"
     style="fill:#ffffff;stroke-width:0.12748757" />
  <path
     d="m 12.644855,12.163972 c 1.333521,1.373042 3.50999,1.373042 4.856003,0 1.346269,-1.366667 1.346269,-3.5843132 0,-4.9544222 -1.346013,-1.3685791 -3.522482,-1.3685791 -4.856003,0 l -0.110276,0.1070897 -2.320275,2.3757308 2.41844,2.4685417 0.01224,0.0029 z"
     id="path22"
     inkscape:connector-curvature="0"
     style="fill:#8bc037;stroke-width:0.12748757" />
  <path
     d="M 9.5035614,9.6924983 V 5.6804639 c 0,-2.2144592 1.7567786,-4.0173884 3.9397486,-4.0173884 2.169839,0 3.927639,1.7912004 3.927639,4.010759 0,2.2189213 -1.757545,4.0184088 -3.927893,4.0184088 H 9.5036894 Z"
     id="path24"
     inkscape:connector-curvature="0"
     style="fill:#ffffff;stroke-width:0.12748757" />
  <path
     d="m 13.443439,9.1822926 c 1.893828,0 3.429415,-1.5693721 3.429415,-3.5080756 0,-1.9311818 -1.53546,-3.504251 -3.429415,-3.504251 -1.902499,0 -3.4447156,1.5731967 -3.4447156,3.5043784 l 0.007,0.1504354 V 9.18242 h 3.437704 z"
     id="path26"
     inkscape:connector-curvature="0"
     style="fill:#f99f38;stroke-width:0.12748757" />
  <path
     d="M 9.5035614,9.6924983 6.8230076,6.956997 6.7184677,6.8601064 c -1.5357152,-1.5719218 -1.5357152,-4.1182311 0,-5.683651 1.529341,-1.56860721 4.0264403,-1.56860721 5.5673823,0 1.536482,1.5655474 1.536482,4.1117292 0,5.6775317 z"
     id="path28"
     inkscape:connector-curvature="0"
     style="fill:#ffffff;stroke-width:0.12748757" />
  <path
     d="m 11.932964,6.5273639 c 1.339004,-1.3692166 1.339004,-3.591325 0,-4.9586292 -1.344738,-1.3679418 -3.5161067,-1.3679418 -4.8611006,0 -1.3465239,1.3673042 -1.3465239,3.5894126 0,4.9586292 l 0.09791,0.1050496 2.333915,2.3694841 2.4222646,-2.4684144 0.007,-0.00599 z"
     id="path30"
     inkscape:connector-curvature="0"
     style="fill:#0081c6;stroke-width:0.12748757" />
  <path
     d="M 9.5035614,9.7250073 H 5.7115709 l -0.143296,0.0038 c -2.1693286,0 -3.9406409,-1.7996148 -3.9406409,-4.0171336 0,-2.2161166 1.7646829,-4.0153487 3.9340115,-4.0153487 2.1762129,0 3.9419159,1.7991047 3.9419159,4.016496 v 4.0120343 z"
     id="path32"
     inkscape:connector-curvature="0"
     style="fill:#ffffff;stroke-width:0.12748757" />
  <path
     d="m 9.0055944,5.7129733 c 0,-1.9370463 -1.5355873,-3.5046335 -3.4439489,-3.5046335 -1.8947203,0 -3.4364276,1.5675872 -3.4364276,3.5020837 0,1.9352613 1.5418348,3.508458 3.4365551,3.508458 l 0.1499255,-0.00382 h 3.2938959 z"
     id="path34"
     inkscape:connector-curvature="0"
     style="fill:#0081c6;stroke-width:0.12748757" />
  <path
     d="M 9.5035614,9.7250073 0,9.7288073 c 0,-1.026275 0.3786382,-2.0550996 1.1569499,-2.8419531 1.5288309,-1.5655473 4.0260575,-1.5655473 5.5616453,0 l 2.7850942,2.8381281 z"
     id="path36"
     inkscape:connector-curvature="0"
     style="fill:#ffffff;stroke-width:0.12748757" />
  <path
     d="M 6.3655821,7.2470312 8.7967704,9.7250073 H 5.5682749 c -1.744795,0 -3.2286228,1.1597547 -3.7439277,2.7711977 -0.1049222,-0.09307 -0.2163464,-0.187407 -0.3136194,-0.293222 -1.3462687,-1.368834 -1.3462687,-3.5834206 0,-4.9559518 1.3325002,-1.3671768 3.5158524,-1.3671768 4.8549818,0"
     id="path38"
     inkscape:connector-curvature="0"
     style="fill:#0081c6;stroke-width:0.12748757" />
  <path
     d="m 6.3717016,7.2500909 1.9237875,1.9627988 -2.7363933,0.00841 c -1.5749815,0 -2.9031471,-1.0789274 -3.3061354,-2.5523013 1.3063652,-0.746308 3.0172485,-0.566933 4.1123668,0.5782879 z M 9.0068694,5.7199851 9.0039374,8.4964094 7.0725008,6.5267264 C 5.9601717,5.3903022 5.7644783,3.6710047 6.4965119,2.3383771 7.9404361,2.7507995 9.0064874,4.1040801 9.0064874,5.7124632 v 0.00765 h 2.56e-4 z m 0.984205,2.7825437 V 5.7174353 c 0,-1.6048136 1.0642656,-2.9602615 2.5102296,-3.3762535 0.731143,1.3360697 0.593456,3.0112565 -0.554188,4.1692262 z"
     id="path40"
     inkscape:connector-curvature="0"
     style="fill:#005ea5;stroke-width:0.12748757" />
  <path
     d="m 10.708829,9.1838224 1.929525,-1.9727426 a 3.3888747,3.3888747 0 0 1 4.107267,-0.5819809 c -0.412804,1.472354 -1.672254,2.5305008 -3.222375,2.5559984 l -2.814545,-0.00127 z"
     id="path42"
     inkscape:connector-curvature="0"
     style="fill:#ffdf4f;stroke-width:0.12748757" />
  <path
     d="m 10.708574,10.196711 h 2.731295 c 1.574981,0 2.901999,1.072681 3.307665,2.548477 -1.314397,0.749117 -3.001568,0.552914 -4.118104,-0.582236 z m -0.702967,3.487933 v -2.77158 l 1.934497,1.966496 c 1.112331,1.138464 1.300375,2.865922 0.569359,4.198548 -1.444434,-0.414334 -2.503856,-1.773096 -2.503856,-3.380077 v -0.01351 z m -2.9231622,-0.803937 1.9225126,-1.961014 0.0045,2.786115 c 0,1.605961 -1.0577643,2.955671 -2.502326,3.372046 -0.731817,-1.335305 -0.535741,-3.058428 0.5753132,-4.191793 z M 5.587653,10.197604 h 2.7189275 l -1.9279946,1.969428 c -1.1099068,1.134003 -2.8111011,1.32995 -4.1168288,0.583893 0.41051,-1.476689 1.7389306,-2.553194 3.3140395,-2.553194 h 0.011984 z"
     id="path44"
     inkscape:connector-curvature="0"
     style="fill:#48a64a;stroke-width:0.12748757" />
</svg>
